<?xml version="1.0" standalone="no"?>
<!DOCTYPE svg PUBLIC "-//W3C//DTD SVG 20010904//EN"
 "http://www.w3.org/TR/2001/REC-SVG-20010904/DTD/svg10.dtd">
<svg version="1.0" xmlns="http://www.w3.org/2000/svg"
 width="500.000000pt" height="500.000000pt" viewBox="0 0 500.000000 500.000000"
 preserveAspectRatio="xMidYMid meet">

<g transform="translate(0.000000,500.000000) scale(0.100000,-0.100000)"
fill="#000000" stroke="none">
<path d="M0 2500 l0 -2500 2500 0 2500 0 0 2500 0 2500 -2500 0 -2500 0 0
-2500z m1950 1335 l0 -25 -380 0 -380 0 0 -380 0 -380 -25 0 -25 0 0 405 0
405 405 0 405 0 0 -25z m1920 -380 l0 -405 -30 0 -30 0 0 380 0 380 -380 0
-380 0 0 25 0 25 410 0 410 0 0 -405z m-1730 -205 l0 -370 -370 0 -370 0 0
370 0 370 370 0 370 0 0 -370z m428 318 l-3 -53 -50 0 -50 0 -3 53 -3 52 56 0
56 0 -3 -52z m212 -53 l0 -105 -55 0 -55 0 0 105 0 105 55 0 55 0 0 -105z
m850 -265 l0 -370 -375 0 -375 0 0 370 0 370 375 0 375 0 0 -370z m-1280 105
l0 -55 -50 0 -50 0 0 55 0 55 50 0 50 0 0 -55z m218 3 l-3 -53 -52 -3 -53 -3
0 55 0 56 56 0 55 0 -3 -52z m210 -160 l3 -108 -56 0 -55 0 0 -50 0 -50 55 0
55 0 0 -55 0 -55 -55 0 -55 0 0 50 0 50 -50 0 -50 0 0 -155 0 -155 50 0 50 0
0 55 0 55 163 -2 162 -3 3 -52 3 -53 50 0 49 0 0 -70 0 -70 -165 0 -165 0 0
65 0 65 -45 0 -45 0 0 -65 0 -65 -110 0 c-103 0 -110 1 -110 20 0 17 7 20 50
20 l50 0 0 50 0 50 -50 0 -50 0 0 155 0 155 -50 0 -49 0 -3 -157 -3 -158 -47
-3 -48 -3 0 -65 0 -64 -115 0 c-96 0 -115 3 -115 15 0 11 -12 15 -50 15 -38 0
-50 -4 -50 -15 0 -12 -13 -15 -56 -15 -47 0 -55 3 -52 18 2 13 15 18 56 20
l52 3 0 44 0 44 -52 3 -53 3 0 55 0 55 208 3 207 2 0 105 0 105 55 0 55 0 0
105 0 105 55 0 55 0 0 -50 0 -50 50 0 50 0 0 50 0 50 55 0 55 0 0 56 0 55 53
-3 52 -3 3 -107z m-1060 -530 l3 -108 -51 0 c-38 0 -50 -4 -50 -15 0 -12 -19
-15 -110 -15 -103 0 -110 1 -110 20 0 19 7 20 105 20 l105 0 0 45 0 45 -105 0
-105 0 0 60 0 61 158 -3 157 -3 3 -107z m1700 55 l3 -53 105 0 104 0 0 -70 0
-70 -165 0 c-140 0 -165 2 -165 15 0 11 -12 15 -50 15 l-50 0 0 55 0 55 50 0
50 0 0 48 c0 27 3 52 7 56 4 4 30 6 58 4 l50 -3 3 -52z m-1803 -313 l0 -55
-55 0 -55 0 -3 48 -3 47 -50 0 c-27 0 -49 5 -49 10 0 7 38 10 108 8 l107 -3 0
-55z m315 0 l0 -60 105 0 105 0 0 55 0 54 -57 4 c-32 2 -6 3 57 3 l115 -1 3
-52 3 -53 45 0 44 0 0 49 0 49 103 5 c146 8 524 9 645 1 l102 -6 0 -54 0 -54
-50 0 -50 0 0 -105 0 -105 50 0 50 0 0 55 0 55 50 0 49 0 3 108 3 107 160 0
160 0 0 -110 0 -110 -52 -3 -53 -3 0 -50 0 -49 55 0 55 0 0 -160 0 -160 -55 0
-55 0 0 -49 0 -50 53 -3 52 -3 3 -52 3 -53 -55 0 -56 0 0 50 0 50 -50 0 -50 0
0 -50 0 -50 -55 0 -55 0 0 50 0 50 -55 0 -55 0 0 55 0 55 -50 0 -50 0 0 -55 0
-55 -55 0 -55 0 0 -50 0 -50 -50 0 -50 0 0 -50 0 -50 100 0 100 0 0 50 0 50
55 0 55 0 0 -50 0 -49 108 -3 107 -3 3 -52 3 -53 -320 0 -321 0 0 50 0 50 -50
0 -50 0 0 -50 0 -50 -60 0 -60 0 0 45 0 45 -45 0 -45 0 0 -45 0 -45 -110 0
-110 0 0 160 0 160 50 0 50 0 0 50 0 50 -50 0 -50 0 0 210 0 210 -160 0 -160
0 0 55 0 55 -50 0 -50 0 0 -50 0 -50 -55 0 -55 0 0 50 0 50 50 0 50 0 0 60 0
60 55 0 55 0 0 -60z m210 -640 l0 -370 -370 0 -370 0 0 370 0 370 370 0 370 0
0 -370z m-950 -200 l0 -380 380 0 380 0 0 -30 0 -30 -405 0 -405 0 0 410 0
410 25 0 25 0 0 -380z m2680 -30 l0 -410 -410 0 -410 0 0 30 0 30 380 0 380 0
0 380 0 380 30 0 30 0 0 -410z m-240 -90 l0 -50 -55 0 -55 0 0 50 0 50 55 0
55 0 0 -50z"/>
<path d="M1510 3255 l0 -255 260 0 260 0 0 255 0 255 -260 0 -260 0 0 -255z
m420 -5 l0 -161 -157 3 -158 3 -3 158 -3 157 161 0 160 0 0 -160z"/>
<path d="M3000 3250 l0 -260 255 0 255 0 0 260 0 260 -255 0 -255 0 0 -260z
m418 3 l-3 -158 -157 -3 -158 -3 0 161 0 160 160 0 161 0 -3 -157z"/>
<path d="M2040 2615 l0 -45 45 0 45 0 0 45 0 45 -45 0 -45 0 0 -45z"/>
<path d="M2890 2615 l0 -45 50 0 50 0 0 45 0 45 -50 0 -50 0 0 -45z"/>
<path d="M2890 2405 l0 -45 45 0 45 0 0 45 0 45 -45 0 -45 0 0 -45z"/>
<path d="M3420 2350 l0 -100 50 0 50 0 0 100 0 100 -50 0 -50 0 0 -100z"/>
<path d="M2360 2300 l0 -50 45 0 45 0 0 50 0 50 -45 0 -45 0 0 -50z"/>
<path d="M2670 2290 l0 -50 -50 0 -50 0 0 -105 0 -105 -55 0 -55 0 0 -50 0
-50 55 0 55 0 0 -50 0 -50 50 0 50 0 0 50 0 50 55 0 55 0 0 -50 0 -50 50 0 50
0 0 105 0 105 105 0 105 0 0 50 0 50 -105 0 -105 0 0 49 0 50 -52 3 -53 3 -3
48 -3 47 -50 0 -49 0 0 -50z m108 -202 l-3 -53 -50 0 -50 0 -3 53 -3 52 56 0
56 0 -3 -52z"/>
<path d="M3210 2090 l0 -50 45 0 45 0 0 50 0 50 -45 0 -45 0 0 -50z"/>
<path d="M3420 2085 l0 -55 -55 0 -55 0 0 -50 0 -50 55 0 55 0 0 -49 c0 -53
10 -61 73 -61 l27 0 0 160 0 160 -50 0 -50 0 0 -55z"/>
<path d="M3100 1980 l0 -50 50 0 50 0 0 50 0 50 -50 0 -50 0 0 -50z"/>
<path d="M2360 1870 l0 -50 50 0 50 0 0 50 0 50 -50 0 -50 0 0 -50z"/>
<path d="M2990 1876 c0 -41 2 -44 31 -50 65 -13 69 -11 69 44 l0 50 -50 0 -50
0 0 -44z"/>
<path d="M3210 1870 c0 -49 1 -50 29 -50 52 0 61 8 61 56 l0 44 -45 0 -45 0 0
-50z"/>
<path d="M2680 1720 l0 -100 45 0 45 0 0 100 0 100 -45 0 -45 0 0 -100z"/>
<path d="M2890 1770 l0 -50 50 0 50 0 0 50 0 50 -50 0 -50 0 0 -50z"/>
<path d="M3310 1770 l0 -50 50 0 50 0 0 50 0 50 -50 0 -50 0 0 -50z"/>
<path d="M2360 1665 l0 -45 100 0 100 0 0 45 0 45 -100 0 -100 0 0 -45z"/>
<path d="M1510 1770 l0 -260 260 0 260 0 0 260 0 260 -260 0 -260 0 0 -260z
m420 0 l0 -160 -160 0 -160 0 0 160 0 160 160 0 160 0 0 -160z"/>
</g>
</svg>
